<?xml version="1.0" standalone="no"?>
<!DOCTYPE svg PUBLIC "-//W3C//DTD SVG 20010904//EN"
 "http://www.w3.org/TR/2001/REC-SVG-20010904/DTD/svg10.dtd">
<svg version="1.0" xmlns="http://www.w3.org/2000/svg"
 width="791.000000pt" height="745.000000pt" viewBox="0 0 791.000000 745.000000"
 preserveAspectRatio="xMidYMid meet">

<g transform="translate(0.000000,745.000000) scale(0.100000,-0.100000)"
fill="#000000" stroke="none">
<path d="M3914 7429 c-23 -8 -27 -24 -70 -299 -31 -204 -116 -487 -173 -581
-12 -19 -21 -40 -21 -46 0 -71 122 191 170 364 24 89 48 218 60 323 15 133 28
212 37 221 8 8 138 -130 264 -282 43 -51 91 -127 133 -209 37 -71 81 -142 99
-159 90 -82 151 -131 157 -124 4 5 35 50 70 102 34 51 77 109 95 130 43 47
125 178 195 314 44 84 59 105 68 95 11 -14 42 -148 61 -263 59 -359 59 -358
65 -623 l6 -262 -28 13 c-15 8 -58 24 -97 37 -38 12 -143 51 -233 87 -89 35
-177 67 -195 69 -21 4 -64 -5 -122 -24 -92 -31 -212 -52 -290 -52 -48 0 -118
-16 -270 -62 -209 -63 -266 -78 -275 -73 -13 8 -157 -42 -217 -76 l-53 -29 0
142 c0 141 -13 336 -26 412 l-7 38 53 -36 c29 -20 58 -36 65 -36 7 0 31 -15
54 -32 48 -40 109 -78 122 -78 23 0 4 28 -44 66 -44 35 -198 121 -232 130 -5
2 -19 6 -31 9 l-21 7 17 -69 c17 -67 25 -235 21 -433 l-1 -85 -80 -90 c-76
-85 -186 -265 -205 -335 -3 -14 -33 -81 -65 -150 -32 -69 -73 -172 -90 -229
-31 -101 -32 -103 -58 -97 -15 4 -54 11 -87 16 -33 5 -85 16 -115 24 -52 15
-138 22 -590 46 -207 11 -247 15 -349 31 -108 17 -325 -20 -459 -77 -20 -9
-82 -31 -136 -51 -54 -19 -149 -59 -209 -90 -61 -30 -118 -56 -128 -58 -48 -9
-327 -223 -497 -380 -54 -50 -156 -194 -207 -292 -23 -45 -25 -57 -17 -85 6
-18 13 -60 16 -93 4 -33 16 -103 27 -155 11 -52 24 -162 30 -245 5 -82 13
-168 18 -190 20 -91 44 -171 56 -185 22 -27 54 -110 75 -196 20 -85 70 -216
94 -244 7 -8 18 -35 25 -60 22 -78 197 -379 326 -560 72 -101 153 -221 174
-260 10 -19 41 -63 67 -97 27 -34 71 -91 97 -127 52 -72 139 -143 193 -157 18
-6 46 -22 61 -38 69 -69 134 -41 293 125 171 179 297 301 373 361 37 30 108
100 158 156 98 111 119 128 119 100 0 -25 -27 -167 -44 -228 -29 -109 -89
-388 -142 -665 -7 -36 -20 -130 -29 -210 -10 -80 -33 -230 -52 -335 -56 -302
-58 -272 39 -464 l83 -165 65 -26 c36 -14 101 -36 145 -49 44 -12 109 -31 145
-41 36 -11 89 -24 117 -29 29 -6 86 -26 127 -46 41 -19 125 -52 185 -73 l111
-38 62 32 c111 57 260 123 358 158 52 18 138 51 190 71 103 41 207 80 338 127
l83 29 112 -31 c62 -17 146 -45 187 -62 108 -44 250 -88 288 -88 37 0 228 -42
307 -67 28 -8 78 -28 113 -44 35 -16 68 -29 74 -29 5 0 22 -7 37 -16 27 -16
32 -15 132 26 129 52 350 129 404 140 22 4 108 33 190 64 83 30 175 62 206 71
31 8 64 22 75 30 16 13 16 14 2 9 -10 -3 -18 -4 -18 -2 0 3 23 47 51 99 28 52
59 112 69 134 10 22 41 89 70 149 l53 109 -11 56 c-6 31 -14 90 -17 131 -4 41
-13 113 -21 160 -51 305 -74 452 -74 482 0 107 -110 509 -175 640 l-48 97 20
67 c11 38 25 70 30 71 6 2 42 -24 79 -58 81 -72 171 -118 247 -126 64 -7 127
18 217 85 74 55 92 72 196 193 49 57 128 142 176 189 127 124 191 201 245 293
27 46 89 127 143 185 88 96 98 111 141 215 38 92 50 112 67 112 13 0 37 21 67
60 62 79 84 124 106 215 16 68 27 144 70 471 6 48 9 115 7 150 -3 35 1 145 9
244 8 99 16 219 18 266 2 48 10 102 18 120 28 68 29 107 7 175 -12 36 -33 77
-46 93 -23 28 -138 103 -179 117 -11 4 -29 15 -40 25 -11 9 -85 43 -165 75
l-145 59 -255 5 c-227 6 -264 9 -340 30 -70 20 -107 24 -210 23 -125 -1 -226
-18 -425 -73 -38 -10 -83 -19 -100 -19 -49 -2 -188 -38 -246 -65 -30 -14 -88
-43 -129 -65 -41 -22 -78 -37 -81 -33 -4 4 -23 43 -42 87 -19 44 -60 133 -91
197 -31 65 -56 123 -56 130 0 7 -9 27 -20 43 -11 17 -20 40 -20 52 0 17 -16
31 -65 58 -36 20 -66 37 -66 38 -1 1 -7 128 -14 282 -10 219 -18 311 -39 420
-14 77 -33 181 -42 230 -23 129 -50 195 -77 195 -18 0 -36 -28 -106 -164 -46
-91 -106 -193 -133 -228 -109 -141 -141 -185 -156 -215 -9 -18 -21 -33 -27
-33 -6 0 -42 25 -80 55 -74 60 -108 106 -163 225 -47 102 -97 173 -195 277
-45 48 -102 113 -125 145 -48 63 -57 69 -88 57z m3305 -1873 c117 -11 200 -24
255 -41 44 -13 100 -29 124 -35 42 -11 54 -26 28 -36 -15 -6 -66 -77 -66 -91
0 -5 18 11 40 35 21 23 46 42 55 42 8 0 49 -33 91 -72 l75 -73 11 -75 c5 -41
8 -102 4 -135 -29 -315 -35 -409 -30 -465 9 -93 -60 -608 -84 -632 -5 -5 -15
16 -24 54 l-14 63 -40 3 c-49 3 -53 0 -86 -70 -43 -90 -52 -77 -44 65 4 67 14
169 22 227 8 58 14 166 14 240 0 74 4 155 9 180 11 49 15 309 5 334 -12 32
-23 15 -26 -41 l-3 -58 -50 4 c-27 2 -61 11 -75 21 -79 55 -168 46 -232 -22
-24 -26 -33 -29 -78 -26 l-50 3 0 63 c0 47 -3 63 -12 59 -9 -3 -13 -30 -11
-94 l1 -91 -266 -4 c-147 -2 -275 -8 -284 -12 -16 -7 -18 -2 -18 37 0 25 -4
49 -10 52 -12 8 -18 -449 -7 -639 7 -138 -8 -482 -22 -499 -8 -8 -57 102 -53
117 6 20 -32 46 -69 46 -66 0 -84 -15 -115 -96 -16 -43 -31 -69 -35 -62 -19
37 -36 357 -30 583 1 44 -3 179 -9 300 -7 121 -14 270 -17 330 l-5 110 94 98
c61 63 100 97 114 97 14 0 36 -19 63 -55 23 -30 44 -55 46 -55 16 0 -1 32 -41
78 -67 76 -82 73 -184 -35 -45 -49 -77 -79 -71 -67 6 12 43 55 83 96 84 86
183 142 331 188 92 28 245 66 302 74 45 6 199 -1 394 -18z m527 -17 c19 -22
19 -22 -3 -8 -13 8 -23 17 -23 21 0 12 6 9 26 -13z m-4057 -35 c107 -38 161
-80 161 -126 0 -46 -34 -60 -116 -48 -38 5 -95 10 -127 10 -77 0 -94 11 -123
76 -28 65 -30 91 -7 116 23 26 85 17 212 -28z m1099 4 c19 -19 14 -56 -10 -73
-135 -93 -241 -155 -264 -155 -9 0 -52 12 -94 26 -60 20 -81 33 -89 52 -10 20
-9 28 5 43 18 20 117 60 234 95 83 25 199 31 218 12z m1674 -3 c-23 -7 -84
-36 -136 -65 -78 -43 -107 -67 -169 -136 -73 -83 -74 -85 -80 -150 -4 -37 -2
-124 4 -193 6 -69 9 -149 7 -178 l-3 -51 -45 15 c-25 8 -53 23 -63 32 -20 19
-20 14 14 201 14 76 52 211 57 205 3 -3 14 14 24 38 24 53 117 175 155 203 65
48 184 93 248 93 27 0 26 -2 -13 -14z m1299 -122 c13 -16 12 -17 -3 -4 -10 7
-18 15 -18 17 0 8 8 3 21 -13z m-5468 -180 c-13 -2 -35 -2 -50 0 -16 2 -5 4
22 4 28 0 40 -2 28 -4z m210 -10 c-7 -2 -19 -2 -25 0 -7 3 -2 5 12 5 14 0 19
-2 13 -5z m-1055 -40 c18 -46 25 -130 12 -138 -6 -4 -21 -30 -34 -58 -27 -62
-52 -88 -62 -63 -3 9 -10 14 -14 11 -5 -3 -16 17 -24 43 l-16 48 40 74 c41 75
67 110 80 110 4 0 12 -12 18 -27z m-458 -73 c-8 -5 -19 -10 -25 -10 -5 0 -3 5
5 10 8 5 20 10 25 10 6 0 3 -5 -5 -10z m3803 -62 c-6 -7 -13 -31 -17 -53 -5
-38 -26 -103 -114 -355 -22 -63 -60 -158 -85 -210 -24 -52 -59 -135 -77 -185
-18 -49 -48 -117 -67 -151 -18 -33 -64 -150 -102 -260 -38 -109 -80 -224 -95
-254 -14 -30 -26 -61 -26 -69 0 -7 -17 -52 -39 -100 -21 -47 -49 -117 -61
-156 -25 -77 -100 -245 -110 -245 -3 0 -27 22 -53 48 l-47 48 29 54 c16 30 43
91 59 135 16 44 50 123 75 175 86 181 135 295 152 353 9 31 20 57 23 57 4 0
20 35 36 78 15 42 39 104 53 137 36 87 73 181 137 345 31 80 67 168 80 195 40
82 77 176 96 243 11 41 30 77 51 100 75 83 94 100 103 91 5 -5 5 -13 -1 -21z
m2562 -14 c60 -39 2 -154 -79 -154 -49 0 -71 35 -67 108 1 27 54 62 94 62 15
0 39 -7 52 -16z m-5888 -351 c1 -181 3 -380 6 -444 l5 -115 -125 -1 -124 0 5
23 c4 13 6 144 7 290 0 294 10 434 35 509 l18 50 14 -35 c8 -19 15 -48 15 -63
0 -20 4 -26 15 -22 7 3 26 8 40 11 35 8 61 31 60 52 -1 17 18 72 25 72 2 0 4
-147 4 -327z m6034 297 c35 0 39 -2 39 -26 0 -20 -4 -25 -16 -20 -9 3 -39 6
-69 6 -44 0 -54 3 -58 19 -7 27 3 34 37 27 16 -3 46 -6 67 -6z m-321 -50 l0
-31 -62 3 c-60 3 -63 4 -66 31 l-3 27 65 0 66 0 0 -30z m-193 -39 c28 -7 28
-7 28 -97 0 -89 0 -89 -25 -87 -195 12 -341 14 -352 6 -7 -6 -50 -13 -95 -16
l-83 -6 0 93 0 94 98 11 c171 20 359 21 429 2z m551 -1 c16 -27 1 -133 -27
-185 -12 -22 -21 -44 -21 -49 0 -17 -62 -135 -80 -151 -32 -29 -109 -42 -218
-37 l-103 4 -17 32 c-14 26 -17 60 -17 200 l0 168 70 0 c39 0 83 -5 98 -11 42
-16 57 -14 117 18 44 24 68 30 120 30 55 1 67 -2 78 -19z m-511 -214 c1 0 -5
-37 -13 -81 -9 -47 -25 -95 -40 -118 l-25 -38 -97 2 c-53 2 -118 -1 -144 -5
-26 -5 -58 -6 -72 -2 -37 9 -156 175 -156 217 0 24 168 38 375 32 94 -3 171
-6 172 -7z m-3722 -161 c69 -85 102 -154 120 -254 7 -42 23 -119 35 -171 34
-155 49 -247 60 -385 5 -71 14 -143 19 -160 5 -16 14 -68 21 -115 6 -47 20
-127 32 -179 14 -59 18 -98 12 -106 -5 -7 -40 -56 -79 -109 -56 -79 -70 -94
-76 -79 -10 26 -25 136 -49 358 -11 105 -34 262 -50 350 -17 88 -42 257 -56
375 -14 118 -34 269 -45 335 -20 123 -24 197 -12 208 3 4 7 6 9 5 1 -2 27 -34
59 -73z m-2097 -15 c11 -20 12 -81 7 -308 -3 -155 -8 -297 -12 -315 -4 -24 -3
-29 6 -21 6 6 14 34 18 62 4 39 10 52 22 52 10 0 21 4 26 9 6 5 56 12 112 16
119 8 115 11 132 -105 11 -77 26 -120 42 -120 11 0 9 16 -5 51 -15 35 186 48
249 16 29 -15 35 -27 35 -74 0 -25 5 -43 11 -43 8 0 9 30 4 106 -4 59 -4 204
0 323 l8 216 32 32 c28 28 40 33 82 33 62 0 88 -18 102 -74 29 -116 35 -759 8
-916 -20 -117 -66 -213 -139 -291 -84 -90 -72 -88 -485 -84 -414 3 -415 3
-527 94 -38 31 -91 73 -117 94 -27 21 -49 45 -49 53 0 8 -4 13 -9 10 -15 -10
-135 122 -167 183 -17 33 -36 66 -42 74 -9 11 -5 20 19 43 31 29 55 64 44 64
-3 0 -24 -19 -45 -42 -22 -24 -40 -38 -40 -32 0 6 7 17 15 24 8 7 15 17 15 23
0 6 -11 0 -24 -12 l-24 -23 -45 42 c-40 36 -84 119 -71 133 2 2 9 29 15 61 8
48 7 67 -10 128 -23 82 -19 92 39 82 85 -14 235 -135 276 -222 16 -35 29 -44
89 -70 39 -17 78 -33 88 -36 22 -7 45 3 29 13 -7 4 -8 35 -1 96 5 50 11 203
14 340 4 138 8 260 11 272 2 12 21 34 42 48 34 23 45 25 122 23 79 -3 85 -5
98 -28z m565 4 c64 -32 67 -41 66 -229 -1 -213 -7 -261 -34 -257 -96 13 -134
13 -205 2 -44 -7 -84 -9 -88 -6 -3 4 -10 97 -15 207 -8 198 -8 200 15 242 27
48 43 54 156 56 49 1 83 -4 105 -15z m-1456 -373 c32 -47 75 -191 71 -237 l-4
-39 -33 70 c-37 78 -101 241 -101 257 0 17 43 -16 67 -51z m7357 -53 c25 -57
35 -117 25 -151 -9 -31 -88 -157 -99 -157 -12 0 -51 89 -61 140 l-12 55 44 73
c51 84 78 94 103 40z m-6388 -28 c1 -28 -2 -50 -5 -50 -3 0 -16 -3 -28 -6 -22
-6 -23 -4 -23 50 0 54 1 56 28 56 26 0 27 -3 28 -50z m188 38 c3 -7 7 -25 10
-40 6 -26 4 -28 -26 -28 -32 0 -33 2 -33 40 -1 35 2 40 22 40 13 0 25 -6 27
-12z m135 -124 c-19 -31 -20 -40 -10 -56 15 -24 15 -24 -25 -32 -30 -7 -32 -5
-38 31 -4 21 -9 46 -12 55 -4 13 5 19 38 26 71 16 72 15 47 -24z m177 25 l44
-11 0 -57 0 -58 -60 15 c-56 14 -59 16 -45 32 18 19 19 43 5 71 -13 23 -7 24
56 8z m4556 -27 c10 -20 31 -62 47 -92 30 -54 30 -56 17 -115 -25 -108 -75
-225 -96 -225 -26 0 -125 173 -145 252 -9 35 52 193 80 207 11 5 34 10 50 10
25 1 33 -5 47 -37z m-6225 -134 c-3 -8 -6 -5 -6 6 -1 11 2 17 5 13 3 -3 4 -12
1 -19z m93 -433 c0 -5 -5 -3 -10 5 -5 8 -10 20 -10 25 0 6 5 3 10 -5 5 -8 10
-19 10 -25z m7088 3 c-2 -7 3 -12 11 -10 7 1 -5 -18 -28 -44 -22 -26 -51 -68
-63 -93 -30 -61 -55 -94 -75 -97 -9 -2 -19 -7 -22 -12 -3 -5 -21 -17 -38 -26
-21 -10 -33 -24 -33 -37 0 -11 5 -17 10 -14 6 3 10 2 10 -4 0 -14 -284 -311
-288 -300 -5 14 -28 11 -42 -6 -7 -8 -16 -15 -21 -15 -25 0 2 35 112 144 164
164 184 186 210 232 12 21 50 71 83 109 34 39 83 96 109 128 47 55 70 71 65
45z m-3418 -300 c13 -18 41 -51 62 -73 l37 -41 -11 -109 c-8 -84 -14 -112 -27
-119 -9 -5 -40 -33 -70 -64 -49 -50 -58 -55 -105 -58 -28 -2 -77 -6 -108 -9
-53 -4 -59 -3 -75 22 -10 14 -39 49 -65 78 l-48 52 0 74 c0 64 4 80 27 114 29
44 112 146 128 157 6 4 60 8 121 8 l110 0 24 -32z m2610 -558 c0 -5 -5 -10
-11 -10 -5 0 -7 5 -4 10 3 6 8 10 11 10 2 0 4 -4 4 -10z"/>
<path d="M6755 5393 c-22 -15 -64 -42 -93 -60 -92 -59 -48 -49 53 12 119 71
133 70 263 -10 61 -38 97 -54 103 -48 7 7 -28 31 -99 71 -126 72 -162 77 -227
35z"/>
<path d="M7189 5339 c-46 -23 -79 -44 -72 -46 7 -2 45 12 86 31 41 20 86 36
100 36 17 0 55 -24 112 -71 93 -75 132 -86 53 -14 -68 62 -137 105 -168 105
-14 0 -64 -19 -111 -41z"/>
<path d="M7596 4681 c-3 -4 25 -11 62 -14 37 -3 72 -7 77 -9 6 -2 11 2 13 7 2
6 -7 13 -20 17 -35 9 -126 9 -132 -1z"/>
<path d="M7585 4601 c-44 -10 -14 -23 34 -15 22 4 38 10 35 15 -6 10 -24 10
-69 0z"/>
<path d="M6180 4553 c-50 -9 -47 -26 4 -19 27 3 57 6 67 6 11 0 19 5 19 10 0
10 -43 11 -90 3z"/>
<path d="M7688 4553 c-47 -7 -31 -23 22 -23 28 0 50 5 50 10 0 6 -4 10 -9 10
-5 0 -15 2 -23 3 -7 2 -25 2 -40 0z"/>
<path d="M6290 4540 c0 -5 9 -10 20 -10 11 0 20 5 20 10 0 6 -9 10 -20 10 -11
0 -20 -4 -20 -10z"/>
<path d="M6308 4453 c-27 -2 -48 -8 -48 -14 0 -10 82 -12 118 -3 12 4 22 10
22 15 0 5 -10 8 -22 7 -13 -1 -44 -3 -70 -5z"/>
<path d="M6170 4380 c0 -5 9 -10 20 -10 11 0 20 5 20 10 0 6 -9 10 -20 10 -11
0 -20 -4 -20 -10z"/>
<path d="M7670 4210 c36 -12 90 -12 90 0 0 6 -25 10 -57 9 -44 -1 -52 -3 -33
-9z"/>
<path d="M7550 4180 c0 -5 11 -10 25 -10 14 0 25 5 25 10 0 6 -11 10 -25 10
-14 0 -25 -4 -25 -10z"/>
<path d="M7620 4140 c0 -5 25 -10 55 -10 30 0 55 5 55 10 0 6 -25 10 -55 10
-30 0 -55 -4 -55 -10z"/>
<path d="M6180 4120 c-11 -7 -4 -10 25 -10 22 0 47 5 55 10 11 7 4 10 -25 10
-22 0 -47 -5 -55 -10z"/>
<path d="M6250 4070 c-19 -6 -12 -8 32 -9 31 -1 60 4 63 9 7 12 -58 12 -95 0z"/>
<path d="M1268 4713 c6 -2 18 -2 25 0 6 3 1 5 -13 5 -14 0 -19 -2 -12 -5z"/>
<path d="M1330 4670 c-22 -13 -10 -17 39 -12 29 3 39 7 30 13 -18 11 -50 11
-69 -1z"/>
<path d="M1270 4620 c0 -6 11 -8 28 -4 39 10 40 14 4 14 -18 0 -32 -5 -32 -10z"/>
<path d="M1285 4420 c-23 -6 -14 -8 38 -9 43 -1 66 3 62 9 -7 11 -55 11 -100
0z"/>
<path d="M1365 4360 c-28 -7 -27 -8 13 -9 27 -1 41 3 37 9 -7 11 -7 11 -50 0z"/>
<path d="M1288 4283 c6 -2 18 -2 25 0 6 3 1 5 -13 5 -14 0 -19 -2 -12 -5z"/>
<path d="M3613 3022 c-60 -75 -96 -150 -101 -214 l-4 -60 57 -58 57 -58 82 6
c87 5 109 15 169 71 l37 35 0 112 c0 111 0 112 -32 152 -36 43 -66 52 -178 52
-54 0 -58 -2 -87 -38z"/>
<path d="M4107 6943 c-14 -24 -68 -212 -78 -270 l-11 -68 36 -55 c20 -30 45
-68 56 -85 12 -16 34 -52 51 -78 16 -26 34 -45 39 -42 14 8 77 219 85 280 6
49 4 55 -65 175 -40 69 -77 131 -82 138 -12 14 -25 16 -31 5z m102 -217 c17
-28 31 -64 31 -80 0 -36 -50 -206 -60 -206 -4 0 -15 11 -23 24 -9 13 -28 37
-43 53 -50 54 -77 101 -70 125 4 13 16 57 27 98 11 41 24 93 30 114 l11 39 32
-59 c18 -32 47 -81 65 -108z"/>
<path d="M4928 6793 c-45 -48 -118 -150 -118 -166 0 -5 22 -28 48 -52 27 -24
59 -60 73 -79 24 -36 46 -47 46 -23 0 6 21 46 46 88 26 42 47 86 47 97 0 12
-20 55 -44 96 -24 41 -42 77 -38 80 3 3 1 6 -4 6 -5 0 -30 -21 -56 -47z m67
-100 c32 -41 31 -47 -8 -110 -31 -47 -34 -50 -45 -32 -7 10 -18 19 -25 19 -12
0 -77 56 -77 66 0 3 26 34 58 69 52 58 58 61 65 42 4 -12 19 -36 32 -54z"/>
<path d="M3428 6412 c-47 -107 -46 -111 17 -186 31 -36 59 -66 63 -66 9 1 38
60 64 129 l20 53 -63 64 c-35 35 -66 64 -70 64 -3 0 -18 -26 -31 -58z m52 -2
c0 -11 14 -35 31 -54 l31 -36 -18 -45 c-15 -42 -18 -44 -34 -30 -9 8 -21 15
-27 15 -5 0 -18 9 -27 19 -17 18 -17 23 -1 78 9 32 18 64 20 71 7 19 25 5 25
-18z"/>
</g>
</svg>
